<svg height="91" viewBox="0 0 91 91" width="91" xmlns="http://www.w3.org/2000/svg"><path d="M46.177 43.004c7.979 0 14.472-6.493 14.472-14.474 0-7.978-6.492-14.468-14.472-14.468-7.978 0-14.468 6.49-14.468 14.468 0 7.981 6.49 14.474 14.468 14.474z" fill="#F9EFE3"/><path d="M56.729 40.629c-2.846 2.512-6.578 4.05-10.664 4.05-4.048 0-7.855-1.51-10.693-3.981-.024.016-.266.039-.293.051-4.676 2.212-7.7 6.033-7.7 10.761v26.024H64.23V51.507c-.001-4.71-2.741-8.667-7.501-10.878z" fill="#B0E0D4"/><path d="M19.003 49.796v12.663H3.928V47.58c0-2.742 1.645-4.767 4.283-6.018 1.724 1.43 4.086 2.291 6.495 2.291 2.271 0 4.435-.771 6.112-2.057l1.209.851c-2.588 2.689-3.024 6.948-3.024 7.149zm-4.144-7.618c-4.564 0-8.277-3.715-8.277-8.281s3.713-8.281 8.277-8.281c4.568 0 8.285 3.715 8.285 8.281s-3.716 8.281-8.285 8.281zm54.83.703l1.324-.85a10.029 10.029 0 0 0 6.078 2.055c2.409 0 4.709-.861 6.434-2.291 2.639 1.252 4.152 3.276 4.152 6.018v14.646H72.604V50.03c0-.201-.325-4.461-2.915-7.149zm-.97-8.752c0-4.566 3.717-8.281 8.285-8.281 4.564 0 8.277 3.715 8.277 8.281s-3.713 8.282-8.277 8.282c-4.568 0-8.285-3.716-8.285-8.282z" fill="#E0F1F8"/><g fill="#454B53"><path d="M45.854 46.494c-9.824 0-17.818-7.995-17.818-17.823 0-9.825 7.994-17.818 17.818-17.818 9.826 0 17.822 7.993 17.822 17.818 0 9.828-7.996 17.823-17.822 17.823zm0-30.616c-7.055 0-12.793 5.739-12.793 12.793 0 7.058 5.738 12.798 12.793 12.798 7.056 0 12.797-5.74 12.797-12.798-.001-7.054-5.742-12.793-12.797-12.793z"/><path d="M64.84 79.435a2.513 2.513 0 0 1-2.513-2.513V51.648c0-4.116-2.343-7.455-6.597-9.399a2.513 2.513 0 0 1 2.09-4.57c6.059 2.771 9.532 7.862 9.532 13.97v25.273a2.511 2.511 0 0 1-2.512 2.513zm-37.723.002a2.513 2.513 0 0 1-2.513-2.513V51.649c0-6.007 3.341-11.033 9.167-13.789a2.513 2.513 0 0 1 2.15 4.542c-4.116 1.947-6.291 5.145-6.291 9.247v25.274a2.513 2.513 0 0 1-2.513 2.514zM14.85 45.598c-6.41 0-11.627-5.218-11.627-11.631 0-6.414 5.217-11.631 11.627-11.631 6.416 0 11.636 5.217 11.636 11.631-.001 6.413-5.22 11.631-11.636 11.631zm0-18.237c-3.64 0-6.602 2.963-6.602 6.605s2.962 6.605 6.602 6.605c3.646 0 6.61-2.963 6.61-6.605s-2.965-6.605-6.61-6.605z"/><path d="M3.692 64.834a2.513 2.513 0 0 1-2.513-2.513V47.65c0-4.032 2.094-7.245 5.896-9.047a2.513 2.513 0 0 1 2.152 4.541c-2.034.964-3.022 2.438-3.022 4.506v14.671a2.513 2.513 0 0 1-2.513 2.513zm73.262-19.236c-6.413 0-11.631-5.218-11.631-11.631 0-6.414 5.218-11.631 11.631-11.631s11.63 5.217 11.63 11.631c0 6.413-5.217 11.631-11.63 11.631zm0-18.237c-3.643 0-6.605 2.963-6.605 6.605s2.963 6.605 6.605 6.605c3.642 0 6.604-2.963 6.604-6.605s-2.962-6.605-6.604-6.605z"/><path d="M88.26 64.834a2.513 2.513 0 0 1-2.512-2.513V47.65c0-2.109-1.027-3.605-3.143-4.573a2.511 2.511 0 1 1 2.092-4.568c3.918 1.794 6.076 5.04 6.076 9.142v14.671a2.513 2.513 0 0 1-2.513 2.512z"/></g></svg>