<?xml version="1.0" standalone="no"?>
<!DOCTYPE svg PUBLIC "-//W3C//DTD SVG 20010904//EN"
 "http://www.w3.org/TR/2001/REC-SVG-20010904/DTD/svg10.dtd">
<svg version="1.0" xmlns="http://www.w3.org/2000/svg"
 width="330.000000pt" height="330.000000pt" viewBox="0 0 330.000000 330.000000"
 preserveAspectRatio="xMidYMid meet">
<metadata>
Created by potrace 1.11, written by Peter Selinger 2001-2013
</metadata>
<g transform="translate(0.000000,330.000000) scale(0.100000,-0.100000)"
fill="#000000" stroke="none">
<path d="M1237 2054 c-4 -4 -23 -8 -43 -10 -20 -2 -44 -10 -54 -19 -9 -8 -22
-15 -28 -15 -7 0 -12 -5 -12 -11 0 -5 -4 -8 -8 -5 -10 6 -88 -73 -123 -124
-13 -19 -31 -44 -41 -54 -10 -11 -20 -28 -24 -38 -3 -10 -10 -18 -15 -18 -5 0
-8 -3 -7 -7 1 -5 -7 -33 -17 -63 -23 -66 -26 -185 -6 -223 13 -24 36 -37 71
-41 8 -1 20 -4 25 -7 6 -4 37 -5 70 -3 81 5 85 6 85 16 0 5 12 6 28 2 15 -3
45 -7 66 -7 35 -2 40 1 49 28 6 17 14 33 20 36 5 4 7 14 4 23 -4 9 -3 16 1 16
12 0 42 56 42 77 0 10 10 25 21 33 12 8 27 20 34 27 7 7 15 9 19 6 5 -6 10 20
7 40 0 4 4 7 9 7 6 0 10 9 10 19 0 18 -8 19 -131 18 l-131 -2 -14 -40 c-8 -25
-10 -43 -4 -49 14 -14 12 -33 -7 -74 -19 -40 -30 -52 -53 -52 -27 0 -38 14
-33 42 3 15 9 26 13 23 5 -3 6 4 3 15 -3 11 0 20 6 20 6 0 10 3 9 8 -2 4 15
43 36 87 21 44 45 98 53 120 16 46 58 86 80 78 12 -5 14 -15 9 -47 -4 -23 -11
-45 -17 -51 -5 -5 -9 -17 -9 -27 0 -16 9 -18 75 -18 62 0 76 3 84 19 6 10 7
21 4 25 -3 3 -1 6 5 6 7 0 12 7 12 15 0 8 4 23 9 33 21 41 52 119 56 140 4 23
3 24 -48 18 -81 -9 -109 -7 -123 7 -9 9 -58 9 -67 1z"/>
<path d="M1614 2032 c3 -2 -7 -20 -20 -39 -25 -37 -31 -63 -14 -63 25 0 28
-36 5 -85 -45 -94 -68 -150 -70 -168 -1 -11 -8 -23 -16 -28 -8 -5 -10 -9 -4
-9 5 0 4 -5 -3 -12 -7 -7 -12 -20 -12 -30 0 -10 -4 -18 -10 -18 -5 0 -10 -6
-10 -13 0 -7 -16 -20 -35 -27 -22 -9 -38 -23 -41 -37 -4 -13 -10 -23 -16 -23
-5 0 -6 -4 -3 -10 3 -5 2 -10 -3 -10 -13 0 -11 -30 2 -31 6 -1 118 -2 248 -3
l237 -2 6 26 c3 14 17 42 31 62 13 21 24 42 24 47 0 5 7 25 15 45 8 20 15 38
14 41 0 4 7 17 16 31 9 14 15 28 12 30 -9 9 -131 6 -134 -3 -2 -5 -24 -44 -49
-86 -43 -75 -46 -77 -79 -75 -42 3 -46 23 -15 83 11 22 20 45 20 52 0 7 9 28
20 48 11 20 20 42 20 50 0 8 4 15 10 15 5 0 8 6 5 13 -7 23 49 111 80 125 27
12 65 70 65 99 0 6 -56 9 -150 9 -82 0 -148 -2 -146 -4z"/>
<path d="M2289 2029 c-7 -4 -21 -6 -31 -4 -10 2 -18 -1 -18 -6 0 -6 -4 -7 -10
-4 -5 3 -10 1 -10 -4 0 -6 -7 -11 -15 -11 -8 0 -15 -4 -15 -10 0 -5 -7 -10
-17 -10 -9 0 -14 -3 -11 -6 3 -3 -4 -16 -16 -29 -38 -42 -45 -53 -54 -86 -16
-64 3 -118 63 -177 30 -30 55 -58 55 -63 0 -5 5 -9 10 -9 20 0 9 -38 -16 -55
-25 -16 -54 -15 -81 3 -14 9 -18 56 -8 90 7 21 5 22 -49 22 -57 0 -67 -8 -81
-60 0 -3 -11 -20 -22 -39 -12 -19 -20 -38 -17 -43 3 -4 0 -8 -6 -8 -6 0 -8 -5
-5 -11 4 -5 -1 -19 -11 -30 -9 -10 -13 -19 -8 -19 5 0 2 -4 -6 -10 -8 -5 -11
-12 -7 -16 14 -14 82 -11 99 4 16 13 22 13 55 0 54 -21 223 -10 223 14 0 5 4
7 9 3 5 -3 16 1 24 9 8 8 18 12 22 8 5 -4 5 -2 2 4 -3 6 9 23 28 39 19 15 32
31 29 36 -3 5 -1 9 3 9 15 0 43 92 41 133 -1 20 -5 37 -9 37 -4 0 -11 9 -14
20 -3 11 -10 20 -15 20 -5 0 -30 21 -55 47 -54 54 -58 91 -13 107 33 12 55 -8
66 -60 7 -35 10 -38 49 -41 35 -3 41 0 47 19 3 13 5 25 5 27 0 2 4 7 10 10 6
4 12 16 14 26 2 11 11 35 21 53 22 43 14 69 -22 70 -15 0 -34 -4 -43 -9 -10
-5 -20 -4 -27 3 -13 13 -145 19 -163 7z"/>
<path d="M433 1763 c-7 -2 -13 -13 -13 -24 0 -10 -5 -19 -11 -19 -5 0 -8 -4
-4 -10 3 -5 -4 -19 -15 -30 -19 -19 -32 -21 -118 -19 -93 2 -96 1 -106 -22 -5
-13 -15 -37 -22 -54 -33 -79 -36 -75 66 -75 91 0 92 0 85 -22 -4 -13 -9 -35
-12 -49 l-5 -26 201 0 c185 0 201 2 201 18 0 9 5 19 11 21 5 2 11 10 12 18 2
8 10 30 20 49 9 19 17 36 17 38 0 1 -38 3 -83 3 -46 0 -86 3 -90 6 -3 3 -1 19
5 35 l10 29 91 0 c65 1 98 5 111 15 11 8 16 15 12 15 -5 0 -1 11 8 25 9 13 16
31 16 39 0 8 5 16 12 18 6 2 8 9 5 15 -7 12 -377 17 -404 6z"/>
<path d="M2570 1722 c-11 -26 -24 -55 -30 -64 -24 -42 -15 -48 79 -48 92 0 94
-1 76 -42 -6 -15 -21 -18 -106 -18 l-99 0 -19 -42 c-10 -24 -23 -55 -29 -69
l-10 -26 205 1 205 1 18 45 18 45 104 3 105 3 26 68 c15 38 27 72 27 75 0 4
-33 7 -72 6 -40 -1 -81 1 -90 5 -16 6 -16 9 1 38 37 67 40 66 -186 67 l-204 0
-19 -48z"/>
</g>
</svg>
