<?xml version="1.0" standalone="no"?>
<!DOCTYPE svg PUBLIC "-//W3C//DTD SVG 20010904//EN"
 "http://www.w3.org/TR/2001/REC-SVG-20010904/DTD/svg10.dtd">
<svg version="1.0" xmlns="http://www.w3.org/2000/svg"
 width="96.000000pt" height="96.000000pt" viewBox="0 0 96.000000 96.000000"
 preserveAspectRatio="xMidYMid meet">
<metadata>
Created by potrace 1.11, written by Peter Selinger 2001-2013
</metadata>
<g transform="translate(0.000000,96.000000) scale(0.100000,-0.100000)"
fill="#000000" stroke="none">
<path d="M220 852 c0 -69 1 -72 19 -62 11 5 29 10 41 10 20 0 20 1 -6 48 -49
85 -54 86 -54 4z"/>
<path d="M397 842 l-47 -48 33 -14 c17 -7 35 -15 39 -17 3 -2 11 18 16 44 6
26 14 56 17 66 12 30 -9 19 -58 -31z"/>
<path d="M85 731 c43 -44 50 -49 59 -33 5 9 15 25 23 34 14 15 11 18 -24 27
-22 6 -55 14 -74 17 l-34 7 50 -52z"/>
<path d="M265 773 c-11 -3 -32 -14 -48 -25 -78 -56 -76 -188 4 -237 25 -15 27
-20 13 -25 -9 -3 -23 -1 -31 5 -17 15 -17 15 -37 -53 -21 -73 -21 -76 9 -48
l25 23 0 -26 c0 -14 7 -30 16 -35 11 -6 15 -17 11 -31 -5 -20 -2 -22 21 -16
22 4 48 -10 147 -81 66 -47 127 -92 136 -100 22 -20 35 -18 82 17 23 16 76 55
117 84 41 30 84 62 95 70 10 8 32 15 47 15 18 0 26 4 22 13 -2 7 4 22 16 32
15 14 20 31 20 70 l0 51 -75 23 c-73 23 -75 24 -105 79 -22 40 -30 68 -28 99
1 45 -18 77 -52 88 -26 8 -67 -11 -75 -34 -6 -18 -15 -21 -71 -21 -61 0 -65
-1 -59 -20 11 -33 -18 -23 -36 13 -25 51 -104 85 -164 70z m401 -91 c-13 -13
-18 -14 -28 -4 -10 10 -10 15 1 21 8 5 21 7 28 4 12 -5 12 -8 -1 -21z m-76 0
c0 -17 -25 -32 -54 -32 l-31 1 35 19 c39 21 50 24 50 12z"/>
<path d="M66 590 l-60 -35 68 -3 c73 -3 85 0 68 20 -5 7 -12 22 -14 33 -3 19
-7 18 -62 -15z"/>
</g>
</svg>
